<svg xmlns="http://www.w3.org/2000/svg" width="202" height="48" viewBox="0 0 202 48" fill="none">
<path d="M72.92 15.248V32H69.56V21.104L65.072 32H62.528L58.016 21.104V32H54.656V15.248H58.472L63.8 27.704L69.128 15.248H72.92ZM82.1459 32.216C80.8659 32.216 79.7139 31.936 78.6899 31.376C77.6659 30.8 76.8579 29.992 76.2659 28.952C75.6899 27.912 75.4019 26.712 75.4019 25.352C75.4019 23.992 75.6979 22.792 76.2899 21.752C76.8979 20.712 77.7219 19.912 78.7619 19.352C79.8019 18.776 80.9619 18.488 82.2419 18.488C83.5219 18.488 84.6819 18.776 85.7219 19.352C86.7619 19.912 87.5779 20.712 88.1699 21.752C88.7779 22.792 89.0819 23.992 89.0819 25.352C89.0819 26.712 88.7699 27.912 88.1459 28.952C87.5379 29.992 86.7059 30.8 85.6499 31.376C84.6099 31.936 83.4419 32.216 82.1459 32.216ZM82.1459 29.288C82.7539 29.288 83.3219 29.144 83.8499 28.856C84.3939 28.552 84.8259 28.104 85.1459 27.512C85.4659 26.92 85.6259 26.2 85.6259 25.352C85.6259 24.088 85.2899 23.12 84.6179 22.448C83.9619 21.76 83.1539 21.416 82.1939 21.416C81.2339 21.416 80.4259 21.76 79.7699 22.448C79.1299 23.12 78.8099 24.088 78.8099 25.352C78.8099 26.616 79.1219 27.592 79.7459 28.28C80.3859 28.952 81.1859 29.288 82.1459 29.288ZM97.0906 28.904L100.451 18.704H104.027L99.1066 32H95.0266L90.1306 18.704H93.7306L97.0906 28.904ZM107.618 17.12C107.026 17.12 106.53 16.936 106.13 16.568C105.746 16.184 105.554 15.712 105.554 15.152C105.554 14.592 105.746 14.128 106.13 13.76C106.53 13.376 107.026 13.184 107.618 13.184C108.21 13.184 108.698 13.376 109.082 13.76C109.482 14.128 109.682 14.592 109.682 15.152C109.682 15.712 109.482 16.184 109.082 16.568C108.698 16.936 108.21 17.12 107.618 17.12ZM109.274 18.704V32H105.914V18.704H109.274ZM124.954 25.064C124.954 25.544 124.922 25.976 124.858 26.36H115.138C115.218 27.32 115.554 28.072 116.146 28.616C116.738 29.16 117.466 29.432 118.33 29.432C119.578 29.432 120.466 28.896 120.994 27.824H124.618C124.234 29.104 123.498 30.16 122.41 30.992C121.322 31.808 119.986 32.216 118.402 32.216C117.122 32.216 115.97 31.936 114.946 31.376C113.938 30.8 113.146 29.992 112.57 28.952C112.01 27.912 111.729 26.712 111.729 25.352C111.729 23.976 112.01 22.768 112.57 21.728C113.13 20.688 113.914 19.888 114.922 19.328C115.93 18.768 117.09 18.488 118.402 18.488C119.666 18.488 120.794 18.76 121.786 19.304C122.794 19.848 123.57 20.624 124.114 21.632C124.674 22.624 124.954 23.768 124.954 25.064ZM121.474 24.104C121.458 23.24 121.146 22.552 120.538 22.04C119.93 21.512 119.186 21.248 118.306 21.248C117.474 21.248 116.77 21.504 116.194 22.016C115.634 22.512 115.29 23.208 115.162 24.104H121.474ZM137.75 15.248V17.96H130.766V22.256H136.118V24.92H130.766V32H127.406V15.248H137.75ZM141.837 17.12C141.245 17.12 140.749 16.936 140.349 16.568C139.965 16.184 139.773 15.712 139.773 15.152C139.773 14.592 139.965 14.128 140.349 13.76C140.749 13.376 141.245 13.184 141.837 13.184C142.429 13.184 142.917 13.376 143.301 13.76C143.701 14.128 143.901 14.592 143.901 15.152C143.901 15.712 143.701 16.184 143.301 16.568C142.917 16.936 142.429 17.12 141.837 17.12ZM143.493 18.704V32H140.133V18.704H143.493ZM154.18 18.512C155.764 18.512 157.044 19.016 158.02 20.024C158.996 21.016 159.484 22.408 159.484 24.2V32H156.124V24.656C156.124 23.6 155.86 22.792 155.332 22.232C154.804 21.656 154.084 21.368 153.172 21.368C152.244 21.368 151.508 21.656 150.964 22.232C150.436 22.792 150.172 23.6 150.172 24.656V32H146.812V18.704H150.172V20.36C150.62 19.784 151.188 19.336 151.876 19.016C152.58 18.68 153.348 18.512 154.18 18.512ZM161.815 25.304C161.815 23.96 162.079 22.768 162.607 21.728C163.151 20.688 163.887 19.888 164.815 19.328C165.743 18.768 166.775 18.488 167.911 18.488C168.775 18.488 169.599 18.68 170.383 19.064C171.167 19.432 171.791 19.928 172.255 20.552V14.24H175.663V32H172.255V30.032C171.839 30.688 171.255 31.216 170.503 31.616C169.751 32.016 168.879 32.216 167.887 32.216C166.767 32.216 165.743 31.928 164.815 31.352C163.887 30.776 163.151 29.968 162.607 28.928C162.079 27.872 161.815 26.664 161.815 25.304ZM172.279 25.352C172.279 24.536 172.119 23.84 171.799 23.264C171.479 22.672 171.047 22.224 170.503 21.92C169.959 21.6 169.375 21.44 168.751 21.44C168.127 21.44 167.551 21.592 167.023 21.896C166.495 22.2 166.063 22.648 165.727 23.24C165.407 23.816 165.247 24.504 165.247 25.304C165.247 26.104 165.407 26.808 165.727 27.416C166.063 28.008 166.495 28.464 167.023 28.784C167.567 29.104 168.143 29.264 168.751 29.264C169.375 29.264 169.959 29.112 170.503 28.808C171.047 28.488 171.479 28.04 171.799 27.464C172.119 26.872 172.279 26.168 172.279 25.352ZM191.305 25.064C191.305 25.544 191.273 25.976 191.209 26.36H181.489C181.569 27.32 181.905 28.072 182.497 28.616C183.089 29.16 183.817 29.432 184.681 29.432C185.929 29.432 186.817 28.896 187.345 27.824H190.969C190.585 29.104 189.849 30.16 188.761 30.992C187.673 31.808 186.337 32.216 184.753 32.216C183.473 32.216 182.321 31.936 181.297 31.376C180.289 30.8 179.497 29.992 178.921 28.952C178.361 27.912 178.081 26.712 178.081 25.352C178.081 23.976 178.361 22.768 178.921 21.728C179.481 20.688 180.265 19.888 181.273 19.328C182.281 18.768 183.441 18.488 184.753 18.488C186.017 18.488 187.145 18.76 188.137 19.304C189.145 19.848 189.921 20.624 190.465 21.632C191.025 22.624 191.305 23.768 191.305 25.064ZM187.825 24.104C187.809 23.24 187.497 22.552 186.889 22.04C186.281 21.512 185.537 21.248 184.657 21.248C183.825 21.248 183.121 21.504 182.545 22.016C181.985 22.512 181.641 23.208 181.513 24.104H187.825ZM197.118 20.768C197.55 20.064 198.11 19.512 198.798 19.112C199.502 18.712 200.302 18.512 201.198 18.512V22.04H200.31C199.254 22.04 198.454 22.288 197.91 22.784C197.382 23.28 197.118 24.144 197.118 25.376V32H193.758V18.704H197.118V20.768Z" fill="#409EFF"/>
<g clip-path="url(#clip0_1_9)">
<path d="M36 8.25L40 16.25H34L30 8.25H26L30 16.25H24L20 8.25H16L20 16.25H14L10 8.25H8C5.79 8.25 4.02 10.04 4.02 12.25L4 36.25C4 38.46 5.79 40.25 8 40.25H40C42.21 40.25 44 38.46 44 36.25V8.25L36 8.25Z" fill="#409EFF"/>
</g>
<defs>
<clipPath id="clip0_1_9">
<rect width="48" height="48" fill="white"/>
</clipPath>
</defs>
</svg>